<svg width="1000" height="820" xmlns="http://www.w3.org/2000/svg" version="1.1"><g transform="translate(0,10)"><g><path class="link" d="M5,77.77451242318995C500,77.77451242318995 500,42.77451242319001 995,42.77451242319001" style="stroke-width: 85.549; fill: none; stroke: rgb(105, 105, 191); stroke-opacity: 0.4;"><title>451</title></path><path class="link" d="M5,355.99251936948974C500,355.99251936948974 500,123.96072668982106 995,123.96072668982106" style="stroke-width: 76.8234; fill: none; stroke: rgb(105, 191, 105); stroke-opacity: 0.4;"><title>405</title></path><path class="link" d="M5,191.01790008014962C500,191.01790008014962 500,402.6943628105798 995,402.6943628105798" style="stroke-width: 72.2709; fill: none; stroke: rgb(105, 105, 191); stroke-opacity: 0.4;"><title>381</title></path><path class="link" d="M5,630.9858402351055C500,630.9858402351055 500,327.8212663638793 995,327.8212663638793" style="stroke-width: 57.4753; fill: none; stroke: rgb(191, 105, 105); stroke-opacity: 0.4;"><title>303</title></path><path class="link" d="M5,419.72749131712527C500,419.72749131712527 500,273.7603526582955 995,273.7603526582955" style="stroke-width: 50.6465; fill: none; stroke: rgb(105, 191, 105); stroke-opacity: 0.4;"><title>267</title></path><path class="link" d="M5,581.3825808175261C500,581.3825808175261 500,183.23804434945237 995,183.23804434945237" style="stroke-width: 41.7312; fill: none; stroke: rgb(191, 105, 105); stroke-opacity: 0.4;"><title>220</title></path><path class="link" d="M5,474.0729361474753C500,474.0729361474753 500,535.7066524178466 995,535.7066524178466" style="stroke-width: 41.3519; fill: none; stroke: rgb(105, 191, 105); stroke-opacity: 0.4;"><title>218</title></path><path class="link" d="M5,246.97568795084158C500,246.97568795084158 500,495.2083889927865 995,495.2083889927865" style="stroke-width: 39.6447; fill: none; stroke: rgb(105, 105, 191); stroke-opacity: 0.4;"><title>209</title></path><path class="link" d="M5,137.71573604060913C500,137.71573604060913 500,231.27037135987183 995,231.27037135987183" style="stroke-width: 34.3334; fill: none; stroke: rgb(105, 105, 191); stroke-opacity: 0.4;"><title>181</title></path><path class="link" d="M5,281.8781725888325C500,281.8781725888325 500,585.0667913438418 995,585.0667913438418" style="stroke-width: 30.1603; fill: none; stroke: rgb(105, 105, 191); stroke-opacity: 0.4;"><title>159</title></path><path class="link" d="M5,713.7843975420786C500,713.7843975420786 500,693.4197168047023 995,693.4197168047023" style="stroke-width: 29.2119; fill: none; stroke: rgb(191, 105, 105); stroke-opacity: 0.4;"><title>154</title></path><path class="link" d="M5,739.9612610205718C500,739.9612610205718 500,739.2706385252473 995,739.2706385252473" style="stroke-width: 23.1419; fill: none; stroke: rgb(191, 105, 105); stroke-opacity: 0.4;"><title>122</title></path><path class="link" d="M5,505.5610472882715C500,505.5610472882715 500,610.9591236975689 995,610.9591236975689" style="stroke-width: 21.6244; fill: none; stroke: rgb(105, 191, 105); stroke-opacity: 0.4;"><title>114</title></path><path class="link" d="M5,527.185412770505C500,527.185412770505 500,668.0016029922523 995,668.0016029922523" style="stroke-width: 21.6244; fill: none; stroke: rgb(105, 191, 105); stroke-opacity: 0.4;"><title>114</title></path><path class="link" d="M5,668.8284798290141C500,668.8284798290141 500,456.2810579748865 995,456.2810579748865" style="stroke-width: 18.21; fill: none; stroke: rgb(191, 105, 105); stroke-opacity: 0.4;"><title>96</title></path><path class="link" d="M5,690.3580016029922C500,690.3580016029922 500,630.5917713064387 995,630.5917713064387" style="stroke-width: 17.6409; fill: none; stroke: rgb(191, 105, 105); stroke-opacity: 0.4;"><title>93</title></path><path class="link" d="M5,757.6970344643333C500,757.6970344643333 500,772.6970344643335 995,772.6970344643335" style="stroke-width: 12.3297; fill: none; stroke: rgb(191, 105, 105); stroke-opacity: 0.4;"><title>65</title></path><path class="link" d="M5,542.8346246326477C500,542.8346246326477 500,722.8626769970613 995,722.8626769970613" style="stroke-width: 9.67406; fill: none; stroke: rgb(105, 191, 105); stroke-opacity: 0.4;"><title>51</title></path><path class="link" d="M5,449.2238845845578C500,449.2238845845578 500,443.00293881912904 995,443.00293881912904" style="stroke-width: 8.34625; fill: none; stroke: rgb(105, 191, 105); stroke-opacity: 0.4;"><title>44</title></path><path class="link" d="M5,300.8469142399145C500,300.8469142399145 500,653.3008282126638 995,653.3008282126638" style="stroke-width: 7.77718; fill: none; stroke: rgb(105, 105, 191); stroke-opacity: 0.4;"><title>41</title></path><path class="link" d="M5,679.7355062783863C500,679.7355062783863 500,558.1846112743788 995,558.1846112743788" style="stroke-width: 3.60406; fill: none; stroke: rgb(191, 105, 105); stroke-opacity: 0.4;"><title>19</title></path><path class="link" d="M5,549.0943093775047C500,549.0943093775047 500,765.1095378039006 995,765.1095378039006" style="stroke-width: 2.84531; fill: none; stroke: rgb(105, 191, 105); stroke-opacity: 0.4;"><title>15</title></path><path class="link" d="M5,306.15816190221744C500,306.15816190221744 500,762.2642265562383 995,762.2642265562383" style="stroke-width: 2.84531; fill: none; stroke: rgb(105, 105, 191); stroke-opacity: 0.4;"><title>15</title></path><path class="link" d="M5,764.4309377504675C500,764.4309377504675 500,789.4309377504675 995,789.4309377504675" style="stroke-width: 1.13812; fill: none; stroke: rgb(191, 105, 105); stroke-opacity: 0.4;"><title>6</title></path><path class="link" d="M5,765C500,765 500,800 995,800" style="stroke-width: 1; fill: none; stroke: rgb(191, 105, 105); stroke-opacity: 0.4;"><title>0</title></path><path class="link" d="M5,550.5169650013358C500,550.5169650013358 500,788.8618755009351 995,788.8618755009351" style="stroke-width: 1; fill: none; stroke: rgb(105, 191, 105); stroke-opacity: 0.4;"><title>0</title></path><path class="link" d="M5,307.58081752604863C500,307.58081752604863 500,788.8618755009351 995,788.8618755009351" style="stroke-width: 1; fill: none; stroke: rgb(105, 105, 191); stroke-opacity: 0.4;"><title>0</title></path><path class="link" d="M5,304.7355062783863C500,304.7355062783863 500,718.0256478760354 995,718.0256478760354" style="stroke-width: 1; fill: none; stroke: rgb(105, 105, 191); stroke-opacity: 0.4;"><title>0</title></path></g><g><g class="node" transform="translate(995,475.3860539674058)"><rect height="84.6005877638258" width="5" style="fill: rgb(102, 102, 102);"><title>0 - 9
446</title></rect><text x="-6" y="42.3002938819129" dy=".35em" text-anchor="end" style="font-size: 11px; font-family: Arial, Helvetica; pointer-events: none;">0 - 9</text></g><g class="node" transform="translate(995,569.9866417312317)"><rect height="69.42559444296019" width="5" style="fill: rgb(102, 102, 102);"><title>10 - 19
366</title></rect><text x="-6" y="34.712797221480095" dy=".35em" text-anchor="end" style="font-size: 11px; font-family: Arial, Helvetica; pointer-events: none;">10 - 19</text></g><g class="node" transform="translate(995,5.684341886080802e-14)"><rect height="204.10366016564254" width="5" style="fill: rgb(102, 102, 102);"><title>20 - 29
1,076</title></rect><text x="-6" y="102.05183008282127" dy=".35em" text-anchor="end" style="font-size: 11px; font-family: Arial, Helvetica; pointer-events: none;">20 - 29</text></g><g class="node" transform="translate(995,214.1036601656426)"><rect height="142.45524979962596" width="5" style="fill: rgb(102, 102, 102);"><title>30 - 39
751</title></rect><text x="-6" y="71.22762489981298" dy=".35em" text-anchor="end" style="font-size: 11px; font-family: Arial, Helvetica; pointer-events: none;">30 - 39</text></g><g class="node" transform="translate(995,649.4122361741919)"><rect height="58.61341170184344" width="5" style="fill: rgb(102, 102, 102);"><title>40 - 49
309</title></rect><text x="-6" y="29.30670585092172" dy=".35em" text-anchor="end" style="font-size: 11px; font-family: Arial, Helvetica; pointer-events: none;">40 - 49</text></g><g class="node" transform="translate(995,718.0256478760354)"><rect height="32.81592305637189" width="5" style="fill: rgb(102, 102, 102);"><title>50 - 59
173</title></rect><text x="-6" y="16.407961528185947" dy=".35em" text-anchor="end" style="font-size: 11px; font-family: Arial, Helvetica; pointer-events: none;">50 - 59</text></g><g class="node" transform="translate(995,760.8415709324072)"><rect height="18.02030456852792" width="5" style="fill: rgb(102, 102, 102);"><title>60 - 69
95</title></rect><text x="-6" y="9.01015228426396" dy=".35em" text-anchor="end" style="font-size: 11px; font-family: Arial, Helvetica; pointer-events: none;">60 - 69</text></g><g class="node" transform="translate(995,788.8618755009351)"><rect height="1.138124499064921" width="5" style="fill: rgb(102, 102, 102);"><title>70 - 79
6</title></rect><text x="-6" y="0.5690622495324605" dy=".35em" text-anchor="end" style="font-size: 11px; font-family: Arial, Helvetica; pointer-events: none;">70 - 79</text></g><g class="node" transform="translate(995,800)"><rect height="0" width="5" style="fill: rgb(102, 102, 102);"><title>80 - 89
0</title></rect><text x="-6" y="0" dy=".35em" text-anchor="end" style="font-size: 11px; font-family: Arial, Helvetica; pointer-events: none;">80 - 89</text></g><g class="node" transform="translate(995,366.5589099652685)"><rect height="98.82714400213732" width="5" style="fill: rgb(102, 102, 102);"><title>unknown
521</title></rect><text x="-6" y="49.41357200106866" dy=".35em" text-anchor="end" style="font-size: 11px; font-family: Arial, Helvetica; pointer-events: none;">unknown</text></g><g class="node" transform="translate(0,560.5169650013358)"><rect height="204.48303499866415" width="5"><title>1
1,078</title></rect><text x="11" y="102.24151749933208" dy=".35em" text-anchor="start" style="font-size: 11px; font-family: Arial, Helvetica; pointer-events: none;">1</text></g><g class="node" transform="translate(0,317.58081752604863)"><rect height="232.93614747528719" width="5"><title>2
1,228</title></rect><text x="11" y="116.46807373764359" dy=".35em" text-anchor="start" style="font-size: 11px; font-family: Arial, Helvetica; pointer-events: none;">2</text></g><g class="node" transform="translate(0,35)"><rect height="272.58081752604863" width="5"><title>3
1,437</title></rect><text x="11" y="136.29040876302432" dy=".35em" text-anchor="start" style="font-size: 11px; font-family: Arial, Helvetica; pointer-events: none;">3</text></g></g></g></svg>