<svg width="2500" height="600" xmlns="http://www.w3.org/2000/svg" version="1.1"><g transform="translate(50,0)"><text x="-50" y="-7" style="font-size: 10px; font-family: Arial, Helvetica;">null</text><g class="y axis" transform="translate(0,0)" style="font-size: 10px; font-family: Arial, Helvetica;"><g class="tick" transform="translate(0,550)" style="opacity: 1;"><line x2="-6" y2="0" style="shape-rendering: crispEdges; fill: none; stroke: rgb(204, 204, 204);"></line><text dy=".32em" x="-9" y="0" style="text-anchor: end;">0</text></g><g class="tick" transform="translate(0,530.1914343007861)" style="opacity: 1;"><line x2="-6" y2="0" style="shape-rendering: crispEdges; fill: none; stroke: rgb(204, 204, 204);"></line><text dy=".32em" x="-9" y="0" style="text-anchor: end;">500,000</text></g><g class="tick" transform="translate(0,510.38286860157217)" style="opacity: 1;"><line x2="-6" y2="0" style="shape-rendering: crispEdges; fill: none; stroke: rgb(204, 204, 204);"></line><text dy=".32em" x="-9" y="0" style="text-anchor: end;">1,000,000</text></g><g class="tick" transform="translate(0,490.5743029023582)" style="opacity: 1;"><line x2="-6" y2="0" style="shape-rendering: crispEdges; fill: none; stroke: rgb(204, 204, 204);"></line><text dy=".32em" x="-9" y="0" style="text-anchor: end;">1,500,000</text></g><g class="tick" transform="translate(0,470.76573720314434)" style="opacity: 1;"><line x2="-6" y2="0" style="shape-rendering: crispEdges; fill: none; stroke: rgb(204, 204, 204);"></line><text dy=".32em" x="-9" y="0" style="text-anchor: end;">2,000,000</text></g><g class="tick" transform="translate(0,450.9571715039304)" style="opacity: 1;"><line x2="-6" y2="0" style="shape-rendering: crispEdges; fill: none; stroke: rgb(204, 204, 204);"></line><text dy=".32em" x="-9" y="0" style="text-anchor: end;">2,500,000</text></g><g class="tick" transform="translate(0,431.14860580471645)" style="opacity: 1;"><line x2="-6" y2="0" style="shape-rendering: crispEdges; fill: none; stroke: rgb(204, 204, 204);"></line><text dy=".32em" x="-9" y="0" style="text-anchor: end;">3,000,000</text></g><g class="tick" transform="translate(0,411.34004010550257)" style="opacity: 1;"><line x2="-6" y2="0" style="shape-rendering: crispEdges; fill: none; stroke: rgb(204, 204, 204);"></line><text dy=".32em" x="-9" y="0" style="text-anchor: end;">3,500,000</text></g><g class="tick" transform="translate(0,391.5314744062887)" style="opacity: 1;"><line x2="-6" y2="0" style="shape-rendering: crispEdges; fill: none; stroke: rgb(204, 204, 204);"></line><text dy=".32em" x="-9" y="0" style="text-anchor: end;">4,000,000</text></g><g class="tick" transform="translate(0,371.72290870707474)" style="opacity: 1;"><line x2="-6" y2="0" style="shape-rendering: crispEdges; fill: none; stroke: rgb(204, 204, 204);"></line><text dy=".32em" x="-9" y="0" style="text-anchor: end;">4,500,000</text></g><g class="tick" transform="translate(0,351.9143430078608)" style="opacity: 1;"><line x2="-6" y2="0" style="shape-rendering: crispEdges; fill: none; stroke: rgb(204, 204, 204);"></line><text dy=".32em" x="-9" y="0" style="text-anchor: end;">5,000,000</text></g><g class="tick" transform="translate(0,332.10577730864685)" style="opacity: 1;"><line x2="-6" y2="0" style="shape-rendering: crispEdges; fill: none; stroke: rgb(204, 204, 204);"></line><text dy=".32em" x="-9" y="0" style="text-anchor: end;">5,500,000</text></g><g class="tick" transform="translate(0,312.297211609433)" style="opacity: 1;"><line x2="-6" y2="0" style="shape-rendering: crispEdges; fill: none; stroke: rgb(204, 204, 204);"></line><text dy=".32em" x="-9" y="0" style="text-anchor: end;">6,000,000</text></g><g class="tick" transform="translate(0,292.48864591021913)" style="opacity: 1;"><line x2="-6" y2="0" style="shape-rendering: crispEdges; fill: none; stroke: rgb(204, 204, 204);"></line><text dy=".32em" x="-9" y="0" style="text-anchor: end;">6,500,000</text></g><g class="tick" transform="translate(0,272.6800802110052)" style="opacity: 1;"><line x2="-6" y2="0" style="shape-rendering: crispEdges; fill: none; stroke: rgb(204, 204, 204);"></line><text dy=".32em" x="-9" y="0" style="text-anchor: end;">7,000,000</text></g><g class="tick" transform="translate(0,252.87151451179122)" style="opacity: 1;"><line x2="-6" y2="0" style="shape-rendering: crispEdges; fill: none; stroke: rgb(204, 204, 204);"></line><text dy=".32em" x="-9" y="0" style="text-anchor: end;">7,500,000</text></g><g class="tick" transform="translate(0,233.06294881257736)" style="opacity: 1;"><line x2="-6" y2="0" style="shape-rendering: crispEdges; fill: none; stroke: rgb(204, 204, 204);"></line><text dy=".32em" x="-9" y="0" style="text-anchor: end;">8,000,000</text></g><g class="tick" transform="translate(0,213.25438311336342)" style="opacity: 1;"><line x2="-6" y2="0" style="shape-rendering: crispEdges; fill: none; stroke: rgb(204, 204, 204);"></line><text dy=".32em" x="-9" y="0" style="text-anchor: end;">8,500,000</text></g><g class="tick" transform="translate(0,193.44581741414953)" style="opacity: 1;"><line x2="-6" y2="0" style="shape-rendering: crispEdges; fill: none; stroke: rgb(204, 204, 204);"></line><text dy=".32em" x="-9" y="0" style="text-anchor: end;">9,000,000</text></g><g class="tick" transform="translate(0,173.6372517149356)" style="opacity: 1;"><line x2="-6" y2="0" style="shape-rendering: crispEdges; fill: none; stroke: rgb(204, 204, 204);"></line><text dy=".32em" x="-9" y="0" style="text-anchor: end;">9,500,000</text></g><g class="tick" transform="translate(0,153.82868601572164)" style="opacity: 1;"><line x2="-6" y2="0" style="shape-rendering: crispEdges; fill: none; stroke: rgb(204, 204, 204);"></line><text dy=".32em" x="-9" y="0" style="text-anchor: end;">10,000,000</text></g><g class="tick" transform="translate(0,134.02012031650776)" style="opacity: 1;"><line x2="-6" y2="0" style="shape-rendering: crispEdges; fill: none; stroke: rgb(204, 204, 204);"></line><text dy=".32em" x="-9" y="0" style="text-anchor: end;">10,500,000</text></g><g class="tick" transform="translate(0,114.21155461729381)" style="opacity: 1;"><line x2="-6" y2="0" style="shape-rendering: crispEdges; fill: none; stroke: rgb(204, 204, 204);"></line><text dy=".32em" x="-9" y="0" style="text-anchor: end;">11,000,000</text></g><g class="tick" transform="translate(0,94.40298891807993)" style="opacity: 1;"><line x2="-6" y2="0" style="shape-rendering: crispEdges; fill: none; stroke: rgb(204, 204, 204);"></line><text dy=".32em" x="-9" y="0" style="text-anchor: end;">11,500,000</text></g><g class="tick" transform="translate(0,74.59442321886598)" style="opacity: 1;"><line x2="-6" y2="0" style="shape-rendering: crispEdges; fill: none; stroke: rgb(204, 204, 204);"></line><text dy=".32em" x="-9" y="0" style="text-anchor: end;">12,000,000</text></g><g class="tick" transform="translate(0,54.78585751965205)" style="opacity: 1;"><line x2="-6" y2="0" style="shape-rendering: crispEdges; fill: none; stroke: rgb(204, 204, 204);"></line><text dy=".32em" x="-9" y="0" style="text-anchor: end;">12,500,000</text></g><g class="tick" transform="translate(0,34.97729182043817)" style="opacity: 1;"><line x2="-6" y2="0" style="shape-rendering: crispEdges; fill: none; stroke: rgb(204, 204, 204);"></line><text dy=".32em" x="-9" y="0" style="text-anchor: end;">13,000,000</text></g><g class="tick" transform="translate(0,15.168726121224225)" style="opacity: 1;"><line x2="-6" y2="0" style="shape-rendering: crispEdges; fill: none; stroke: rgb(204, 204, 204);"></line><text dy=".32em" x="-9" y="0" style="text-anchor: end;">13,500,000</text></g><path class="domain" d="M-6,0H0V550H-6" style="shape-rendering: crispEdges; fill: none; stroke: rgb(204, 204, 204);"></path></g><rect transform="translate(0,0)" class="bar" x="4" width="61" y="539.5012620937597" height="10.498737906240308" style="fill: rgb(191, 105, 105);"></rect><rect transform="translate(0,0)" class="bar" x="72" width="61" y="510.29305656469194" height="39.70694343530806" style="fill: rgb(191, 119, 105);"></rect><rect transform="translate(0,0)" class="bar" x="140" width="61" y="538.0796805677899" height="11.920319432210135" style="fill: rgb(191, 134, 105);"></rect><rect transform="translate(0,0)" class="bar" x="208" width="61" y="533.7526974764536" height="16.24730252354641" style="fill: rgb(191, 148, 105);"></rect><rect transform="translate(0,0)" class="bar" x="276" width="61" y="487.35608446746977" height="62.64391553253023" style="fill: rgb(191, 162, 105);"></rect><rect transform="translate(0,0)" class="bar" x="344" width="61" y="500.6787711169215" height="49.321228883078504" style="fill: rgb(191, 176, 105);"></rect><rect transform="translate(0,0)" class="bar" x="412" width="61" y="351.3706374965488" height="198.6293625034512" style="fill: rgb(191, 191, 105);"></rect><rect transform="translate(0,0)" class="bar" x="480" width="61" y="541.5828650288272" height="8.4171349711728" style="fill: rgb(176, 191, 105);"></rect><rect transform="translate(0,0)" class="bar" x="548" width="61" y="539.4912389595158" height="10.50876104048416" style="fill: rgb(162, 191, 105);"></rect><rect transform="translate(0,0)" class="bar" x="616" width="61" y="459.99712739781785" height="90.00287260218215" style="fill: rgb(148, 191, 105);"></rect><rect transform="translate(0,0)" class="bar" x="684" width="61" y="441.285124278581" height="108.71487572141899" style="fill: rgb(134, 191, 105);"></rect><rect transform="translate(0,0)" class="bar" x="752" width="61" y="542.2981523362258" height="7.701847663774174" style="fill: rgb(119, 191, 105);"></rect><rect transform="translate(0,0)" class="bar" x="820" width="61" y="503.8379600260263" height="46.16203997397372" style="fill: rgb(105, 191, 105);"></rect><rect transform="translate(0,0)" class="bar" x="888" width="61" y="536.3402111794791" height="13.65978882052093" style="fill: rgb(105, 191, 119);"></rect><rect transform="translate(0,0)" class="bar" x="956" width="61" y="542.3102751784337" height="7.689724821566301" style="fill: rgb(105, 191, 134);"></rect><rect transform="translate(0,0)" class="bar" x="1024" width="61" y="487.19935909565754" height="62.80064090434246" style="fill: rgb(105, 191, 148);"></rect><rect transform="translate(0,0)" class="bar" x="1092" width="61" y="419.41943903150377" height="130.58056096849623" style="fill: rgb(105, 191, 162);"></rect><rect transform="translate(0,0)" class="bar" x="1160" width="61" y="518.4421024076916" height="31.55789759230845" style="fill: rgb(105, 191, 176);"></rect><rect transform="translate(0,0)" class="bar" x="1228" width="61" y="524.8759641639276" height="25.12403583607238" style="fill: rgb(105, 191, 191);"></rect><rect transform="translate(0,0)" class="bar" x="1296" width="61" y="537.5913598061728" height="12.408640193827182" style="fill: rgb(105, 176, 191);"></rect><rect transform="translate(0,0)" class="bar" x="1364" width="61" y="538.0417669730415" height="11.95823302695851" style="fill: rgb(105, 162, 191);"></rect><rect transform="translate(0,0)" class="bar" x="1432" width="61" y="536.2170019008299" height="13.782998099170072" style="fill: rgb(105, 148, 191);"></rect><rect transform="translate(0,0)" class="bar" x="1500" width="61" y="505.77404923746747" height="44.225950762532534" style="fill: rgb(105, 134, 191);"></rect><rect transform="translate(0,0)" class="bar" x="1568" width="61" y="540.7289969957969" height="9.271003004203067" style="fill: rgb(105, 119, 191);"></rect><rect transform="translate(0,0)" class="bar" x="1636" width="61" y="541.0916522166182" height="8.908347783381828" style="fill: rgb(105, 105, 191);"></rect><rect transform="translate(0,0)" class="bar" x="1704" width="61" y="517.7221006616566" height="32.277899338343445" style="fill: rgb(119, 105, 191);"></rect><rect transform="translate(0,0)" class="bar" x="1772" width="61" y="509.535973183668" height="40.46402681633202" style="fill: rgb(134, 105, 191);"></rect><rect transform="translate(0,0)" class="bar" x="1840" width="61" y="534.2067098022795" height="15.793290197720466" style="fill: rgb(148, 105, 191);"></rect><rect transform="translate(0,0)" class="bar" x="1908" width="61" y="529.9713215187364" height="20.02867848126357" style="fill: rgb(162, 105, 191);"></rect><rect transform="translate(0,0)" class="bar" x="1976" width="61" y="536.6035858690158" height="13.396414130984226" style="fill: rgb(176, 105, 191);"></rect><rect transform="translate(0,0)" class="bar" x="2044" width="61" y="542.0560124291186" height="7.943987570881404" style="fill: rgb(191, 105, 191);"></rect><rect transform="translate(0,0)" class="bar" x="2112" width="61" y="529.8805190535712" height="20.11948094642878" style="fill: rgb(191, 105, 176);"></rect><rect transform="translate(0,0)" class="bar" x="2180" width="61" y="543.4336585563676" height="6.566341443632382" style="fill: rgb(191, 105, 162);"></rect><rect transform="translate(0,0)" class="bar" x="2248" width="61" y="458.6409537557869" height="91.35904624421312" style="fill: rgb(191, 105, 148);"></rect><rect transform="translate(0,0)" class="bar" x="2316" width="61" y="0" height="550" style="fill: rgb(191, 105, 134);"></rect><rect transform="translate(0,0)" class="bar" x="2384" width="61" y="544.9934642537864" height="5.006535746213558" style="fill: rgb(191, 105, 119);"></rect></g><g class="x axis" transform="translate(50,550)" style="font-size: 10px; font-family: Arial, Helvetica;"><g class="tick" transform="translate(34.5,0)" style="opacity: 1;"><line y2="6" x2="0" style="shape-rendering: crispEdges; fill: none; stroke: rgb(204, 204, 204);"></line><text dy=".71em" y="9" x="0" style="text-anchor: middle;">Argentina</text></g><g class="tick" transform="translate(102.5,0)" style="opacity: 1;"><line y2="6" x2="0" style="shape-rendering: crispEdges; fill: none; stroke: rgb(204, 204, 204);"></line><text dy=".71em" y="9" x="0" style="text-anchor: middle;">Australia</text></g><g class="tick" transform="translate(170.5,0)" style="opacity: 1;"><line y2="6" x2="0" style="shape-rendering: crispEdges; fill: none; stroke: rgb(204, 204, 204);"></line><text dy=".71em" y="9" x="0" style="text-anchor: middle;">Austria</text></g><g class="tick" transform="translate(238.5,0)" style="opacity: 1;"><line y2="6" x2="0" style="shape-rendering: crispEdges; fill: none; stroke: rgb(204, 204, 204);"></line><text dy=".71em" y="9" x="0" style="text-anchor: middle;">Belgium</text></g><g class="tick" transform="translate(306.5,0)" style="opacity: 1;"><line y2="6" x2="0" style="shape-rendering: crispEdges; fill: none; stroke: rgb(204, 204, 204);"></line><text dy=".71em" y="9" x="0" style="text-anchor: middle;">Brazil</text></g><g class="tick" transform="translate(374.5,0)" style="opacity: 1;"><line y2="6" x2="0" style="shape-rendering: crispEdges; fill: none; stroke: rgb(204, 204, 204);"></line><text dy=".71em" y="9" x="0" style="text-anchor: middle;">Canada</text></g><g class="tick" transform="translate(442.5,0)" style="opacity: 1;"><line y2="6" x2="0" style="shape-rendering: crispEdges; fill: none; stroke: rgb(204, 204, 204);"></line><text dy=".71em" y="9" x="0" style="text-anchor: middle;">China</text></g><g class="tick" transform="translate(510.5,0)" style="opacity: 1;"><line y2="6" x2="0" style="shape-rendering: crispEdges; fill: none; stroke: rgb(204, 204, 204);"></line><text dy=".71em" y="9" x="0" style="text-anchor: middle;">Colombia</text></g><g class="tick" transform="translate(578.5,0)" style="opacity: 1;"><line y2="6" x2="0" style="shape-rendering: crispEdges; fill: none; stroke: rgb(204, 204, 204);"></line><text dy=".71em" y="9" x="0" style="text-anchor: middle;">Denmark</text></g><g class="tick" transform="translate(646.5,0)" style="opacity: 1;"><line y2="6" x2="0" style="shape-rendering: crispEdges; fill: none; stroke: rgb(204, 204, 204);"></line><text dy=".71em" y="9" x="0" style="text-anchor: middle;">France</text></g><g class="tick" transform="translate(714.5,0)" style="opacity: 1;"><line y2="6" x2="0" style="shape-rendering: crispEdges; fill: none; stroke: rgb(204, 204, 204);"></line><text dy=".71em" y="9" x="0" style="text-anchor: middle;">Germany</text></g><g class="tick" transform="translate(782.5,0)" style="opacity: 1;"><line y2="6" x2="0" style="shape-rendering: crispEdges; fill: none; stroke: rgb(204, 204, 204);"></line><text dy=".71em" y="9" x="0" style="text-anchor: middle;">Greece</text></g><g class="tick" transform="translate(850.5,0)" style="opacity: 1;"><line y2="6" x2="0" style="shape-rendering: crispEdges; fill: none; stroke: rgb(204, 204, 204);"></line><text dy=".71em" y="9" x="0" style="text-anchor: middle;">India</text></g><g class="tick" transform="translate(918.5,0)" style="opacity: 1;"><line y2="6" x2="0" style="shape-rendering: crispEdges; fill: none; stroke: rgb(204, 204, 204);"></line><text dy=".71em" y="9" x="0" style="text-anchor: middle;">Indonesia</text></g><g class="tick" transform="translate(986.5,0)" style="opacity: 1;"><line y2="6" x2="0" style="shape-rendering: crispEdges; fill: none; stroke: rgb(204, 204, 204);"></line><text dy=".71em" y="9" x="0" style="text-anchor: middle;">Iran</text></g><g class="tick" transform="translate(1054.5,0)" style="opacity: 1;"><line y2="6" x2="0" style="shape-rendering: crispEdges; fill: none; stroke: rgb(204, 204, 204);"></line><text dy=".71em" y="9" x="0" style="text-anchor: middle;">Italy</text></g><g class="tick" transform="translate(1122.5,0)" style="opacity: 1;"><line y2="6" x2="0" style="shape-rendering: crispEdges; fill: none; stroke: rgb(204, 204, 204);"></line><text dy=".71em" y="9" x="0" style="text-anchor: middle;">Japan</text></g><g class="tick" transform="translate(1190.5,0)" style="opacity: 1;"><line y2="6" x2="0" style="shape-rendering: crispEdges; fill: none; stroke: rgb(204, 204, 204);"></line><text dy=".71em" y="9" x="0" style="text-anchor: middle;">Mexico</text></g><g class="tick" transform="translate(1258.5,0)" style="opacity: 1;"><line y2="6" x2="0" style="shape-rendering: crispEdges; fill: none; stroke: rgb(204, 204, 204);"></line><text dy=".71em" y="9" x="0" style="text-anchor: middle;">Netherlands</text></g><g class="tick" transform="translate(1326.5,0)" style="opacity: 1;"><line y2="6" x2="0" style="shape-rendering: crispEdges; fill: none; stroke: rgb(204, 204, 204);"></line><text dy=".71em" y="9" x="0" style="text-anchor: middle;">Nigeria</text></g><g class="tick" transform="translate(1394.5,0)" style="opacity: 1;"><line y2="6" x2="0" style="shape-rendering: crispEdges; fill: none; stroke: rgb(204, 204, 204);"></line><text dy=".71em" y="9" x="0" style="text-anchor: middle;">Norway</text></g><g class="tick" transform="translate(1462.5,0)" style="opacity: 1;"><line y2="6" x2="0" style="shape-rendering: crispEdges; fill: none; stroke: rgb(204, 204, 204);"></line><text dy=".71em" y="9" x="0" style="text-anchor: middle;">Poland</text></g><g class="tick" transform="translate(1530.5,0)" style="opacity: 1;"><line y2="6" x2="0" style="shape-rendering: crispEdges; fill: none; stroke: rgb(204, 204, 204);"></line><text dy=".71em" y="9" x="0" style="text-anchor: middle;">Russia</text></g><g class="tick" transform="translate(1598.5,0)" style="opacity: 1;"><line y2="6" x2="0" style="shape-rendering: crispEdges; fill: none; stroke: rgb(204, 204, 204);"></line><text dy=".71em" y="9" x="0" style="text-anchor: middle;">Saudi Arabia</text></g><g class="tick" transform="translate(1666.5,0)" style="opacity: 1;"><line y2="6" x2="0" style="shape-rendering: crispEdges; fill: none; stroke: rgb(204, 204, 204);"></line><text dy=".71em" y="9" x="0" style="text-anchor: middle;">South Africa</text></g><g class="tick" transform="translate(1734.5,0)" style="opacity: 1;"><line y2="6" x2="0" style="shape-rendering: crispEdges; fill: none; stroke: rgb(204, 204, 204);"></line><text dy=".71em" y="9" x="0" style="text-anchor: middle;">South Korea</text></g><g class="tick" transform="translate(1802.5,0)" style="opacity: 1;"><line y2="6" x2="0" style="shape-rendering: crispEdges; fill: none; stroke: rgb(204, 204, 204);"></line><text dy=".71em" y="9" x="0" style="text-anchor: middle;">Spain</text></g><g class="tick" transform="translate(1870.5,0)" style="opacity: 1;"><line y2="6" x2="0" style="shape-rendering: crispEdges; fill: none; stroke: rgb(204, 204, 204);"></line><text dy=".71em" y="9" x="0" style="text-anchor: middle;">Sweden</text></g><g class="tick" transform="translate(1938.5,0)" style="opacity: 1;"><line y2="6" x2="0" style="shape-rendering: crispEdges; fill: none; stroke: rgb(204, 204, 204);"></line><text dy=".71em" y="9" x="0" style="text-anchor: middle;">Switzerland</text></g><g class="tick" transform="translate(2006.5,0)" style="opacity: 1;"><line y2="6" x2="0" style="shape-rendering: crispEdges; fill: none; stroke: rgb(204, 204, 204);"></line><text dy=".71em" y="9" x="0" style="text-anchor: middle;">Taiwan</text></g><g class="tick" transform="translate(2074.5,0)" style="opacity: 1;"><line y2="6" x2="0" style="shape-rendering: crispEdges; fill: none; stroke: rgb(204, 204, 204);"></line><text dy=".71em" y="9" x="0" style="text-anchor: middle;">Thailand</text></g><g class="tick" transform="translate(2142.5,0)" style="opacity: 1;"><line y2="6" x2="0" style="shape-rendering: crispEdges; fill: none; stroke: rgb(204, 204, 204);"></line><text dy=".71em" y="9" x="0" style="text-anchor: middle;">Turkey</text></g><g class="tick" transform="translate(2210.5,0)" style="opacity: 1;"><line y2="6" x2="0" style="shape-rendering: crispEdges; fill: none; stroke: rgb(204, 204, 204);"></line><text dy=".71em" y="9" x="0" style="text-anchor: middle;">United Arab Emirates</text></g><g class="tick" transform="translate(2278.5,0)" style="opacity: 1;"><line y2="6" x2="0" style="shape-rendering: crispEdges; fill: none; stroke: rgb(204, 204, 204);"></line><text dy=".71em" y="9" x="0" style="text-anchor: middle;">United Kingdom</text></g><g class="tick" transform="translate(2346.5,0)" style="opacity: 1;"><line y2="6" x2="0" style="shape-rendering: crispEdges; fill: none; stroke: rgb(204, 204, 204);"></line><text dy=".71em" y="9" x="0" style="text-anchor: middle;">United States</text></g><g class="tick" transform="translate(2414.5,0)" style="opacity: 1;"><line y2="6" x2="0" style="shape-rendering: crispEdges; fill: none; stroke: rgb(204, 204, 204);"></line><text dy=".71em" y="9" x="0" style="text-anchor: middle;">Venezuela</text></g><path class="domain" d="M0,6V0H2450V6" style="shape-rendering: crispEdges; fill: none; stroke: rgb(204, 204, 204);"></path></g></svg>