<svg width="800" height="1800" xmlns="http://www.w3.org/2000/svg" version="1.1"><g transform="translate(100,100)"><g class="arc"><path d="M-7.156043108141675,-94.73009578288422A95,95 0 0,1 -1.745121688784978e-14,-95L0,0Z" style="fill: rgb(191, 105, 105);"></path></g><g class="arc"><path d="M5.8170722959499274e-15,-95A95,95 0 1,1 -90.88764714203047,-27.64842847226148L0,0Z" style="fill: rgb(105, 191, 105);"></path></g><g class="arc"><path d="M-90.88764714203047,-27.64842847226148A95,95 0 0,1 -7.156043108141675,-94.73009578288422L0,0Z" style="fill: rgb(105, 105, 191);"></path></g><text y="105" style="text-anchor: middle; font-size: 11px; font-family: Arial, Helvetica;">United States</text></g><g transform="translate(300,100)"><g class="arc"><path d="M-39.683896015599615,-61.67183902552369A73.3363984101144,73.3363984101144 0 0,1 -1.3471677836091246e-14,-73.3363984101144L0,0Z" style="fill: rgb(191, 105, 105);"></path></g><g class="arc"><path d="M4.490559278697082e-15,-73.3363984101144A73.3363984101144,73.3363984101144 0 0,1 7.818479100046273,72.91843879519891L0,0Z" style="fill: rgb(105, 191, 105);"></path></g><g class="arc"><path d="M7.818479100046273,72.91843879519891A73.3363984101144,73.3363984101144 0 0,1 -39.683896015599615,-61.67183902552369L0,0Z" style="fill: rgb(105, 105, 191);"></path></g><text y="83.3363984101144" style="text-anchor: middle; font-size: 11px; font-family: Arial, Helvetica;">China</text></g><g transform="translate(500,100)"><g class="arc"><path d="M-3.6820932423037926,-48.79164414567259A48.93038267868918,48.93038267868918 0 0,1 -8.988365479276768e-15,-48.93038267868918L0,0Z" style="fill: rgb(191, 105, 105);"></path></g><g class="arc"><path d="M2.99612182642559e-15,-48.93038267868918A48.93038267868918,48.93038267868918 0 1,1 -47.63431407797884,11.187245925759939L0,0Z" style="fill: rgb(105, 191, 105);"></path></g><g class="arc"><path d="M-47.63431407797884,11.187245925759939A48.93038267868918,48.93038267868918 0 0,1 -3.6820932423037926,-48.79164414567259L0,0Z" style="fill: rgb(105, 105, 191);"></path></g><text y="58.93038267868918" style="text-anchor: middle; font-size: 11px; font-family: Arial, Helvetica;">Japan</text></g><g transform="translate(700,100)"><g class="arc"><path d="M-2.246791491709667,-44.66138959044909A44.717868823962235,44.717868823962235 0 0,1 3.150290682643079e-14,-44.717868823962235L0,0Z" style="fill: rgb(191, 105, 105);"></path></g><g class="arc"><path d="M2.7381797459978285e-15,-44.717868823962235A44.717868823962235,44.717868823962235 0 1,1 -43.38199535033992,10.848514717701176L0,0Z" style="fill: rgb(105, 191, 105);"></path></g><g class="arc"><path d="M-43.38199535033992,10.848514717701176A44.717868823962235,44.717868823962235 0 0,1 -2.246791491709667,-44.66138959044909L0,0Z" style="fill: rgb(105, 105, 191);"></path></g><text y="54.717868823962235" style="text-anchor: middle; font-size: 11px; font-family: Arial, Helvetica;">Germany</text></g><g transform="translate(100,300)"><g class="arc"><path d="M-1.7175277463474288,-39.02529114028094A39.06306759770875,39.06306759770875 0 0,1 -7.175769104761606e-15,-39.06306759770875L0,0Z" style="fill: rgb(191, 105, 105);"></path></g><g class="arc"><path d="M2.3919230349205355e-15,-39.06306759770875A39.06306759770875,39.06306759770875 0 1,1 -38.22637747110237,-8.041599068590813L0,0Z" style="fill: rgb(105, 191, 105);"></path></g><g class="arc"><path d="M-38.22637747110237,-8.041599068590813A39.06306759770875,39.06306759770875 0 0,1 -1.7175277463474288,-39.02529114028094L0,0Z" style="fill: rgb(105, 105, 191);"></path></g><text y="49.06306759770875" style="text-anchor: middle; font-size: 11px; font-family: Arial, Helvetica;">United Kingdom</text></g><g transform="translate(300,300)"><g class="arc"><path d="M-4.574045438652841,-38.132570967602454A38.40592220314594,38.40592220314594 0 0,1 2.7056257835358373e-14,-38.40592220314594L0,0Z" style="fill: rgb(191, 105, 105);"></path></g><g class="arc"><path d="M2.351684484719247e-15,-38.40592220314594A38.40592220314594,38.40592220314594 0 1,1 -36.67246404526891,-11.408121717555327L0,0Z" style="fill: rgb(105, 191, 105);"></path></g><g class="arc"><path d="M-36.67246404526891,-11.408121717555327A38.40592220314594,38.40592220314594 0 0,1 -4.574045438652841,-38.132570967602454L0,0Z" style="fill: rgb(105, 105, 191);"></path></g><text y="48.40592220314594" style="text-anchor: middle; font-size: 11px; font-family: Arial, Helvetica;">France</text></g><g transform="translate(500,300)"><g class="arc"><path d="M-11.620742375837299,-32.925598550593726A34.91613800637809,34.91613800637809 0 0,1 2.4597769779321647e-14,-34.91613800637809L0,0Z" style="fill: rgb(191, 105, 105);"></path></g><g class="arc"><path d="M2.137996832404909e-15,-34.91613800637809A34.91613800637809,34.91613800637809 0 1,1 -30.806211001242424,16.435147003521777L0,0Z" style="fill: rgb(105, 191, 105);"></path></g><g class="arc"><path d="M-30.806211001242424,16.435147003521777A34.91613800637809,34.91613800637809 0 0,1 -11.620742375837299,-32.925598550593726L0,0Z" style="fill: rgb(105, 105, 191);"></path></g><text y="44.91613800637809" style="text-anchor: middle; font-size: 11px; font-family: Arial, Helvetica;">Brazil</text></g><g transform="translate(700,300)"><g class="arc"><path d="M-4.181104853750275,-33.09688403109571A33.35993660614259,33.35993660614259 0 0,1 -6.128120937670671e-15,-33.35993660614259L0,0Z" style="fill: rgb(191, 105, 105);"></path></g><g class="arc"><path d="M2.042706979223557e-15,-33.35993660614259A33.35993660614259,33.35993660614259 0 1,1 -33.26516081562595,2.5128561989091867L0,0Z" style="fill: rgb(105, 191, 105);"></path></g><g class="arc"><path d="M-33.26516081562595,2.5128561989091867A33.35993660614259,33.35993660614259 0 0,1 -4.181104853750275,-33.09688403109571L0,0Z" style="fill: rgb(105, 105, 191);"></path></g><text y="43.35993660614259" style="text-anchor: middle; font-size: 11px; font-family: Arial, Helvetica;">Italy</text></g><g transform="translate(100,500)"><g class="arc"><path d="M-28.92735693923289,-15.00897910228414A32.58928402377977,32.58928402377977 0 0,1 -5.98655435493388e-15,-32.58928402377977L0,0Z" style="fill: rgb(191, 105, 105);"></path></g><g class="arc"><path d="M1.9955181183112934e-15,-32.58928402377977A32.58928402377977,32.58928402377977 0 1,1 -13.58457990921842,29.62297456152313L0,0Z" style="fill: rgb(105, 191, 105);"></path></g><g class="arc"><path d="M-13.58457990921842,29.62297456152313A32.58928402377977,32.58928402377977 0 0,1 -28.92735693923289,-15.00897910228414L0,0Z" style="fill: rgb(105, 105, 191);"></path></g><text y="42.58928402377977" style="text-anchor: middle; font-size: 11px; font-family: Arial, Helvetica;">India</text></g><g transform="translate(300,500)"><g class="arc"><path d="M-7.525967274309506,-30.095473878811543A31.0222135155473,31.0222135155473 0 0,1 -5.6986881726421135e-15,-31.0222135155473L0,0Z" style="fill: rgb(191, 105, 105);"></path></g><g class="arc"><path d="M1.899562724214038e-15,-31.0222135155473A31.0222135155473,31.0222135155473 0 1,1 -18.391725704231135,24.98243697129104L0,0Z" style="fill: rgb(105, 191, 105);"></path></g><g class="arc"><path d="M-18.391725704231135,24.98243697129104A31.0222135155473,31.0222135155473 0 0,1 -7.525967274309506,-30.095473878811543L0,0Z" style="fill: rgb(105, 105, 191);"></path></g><text y="41.0222135155473" style="text-anchor: middle; font-size: 11px; font-family: Arial, Helvetica;">Russia</text></g><g transform="translate(500,500)"><g class="arc"><path d="M-3.4356676440988476,-30.248250307259323A30.44274065867463,30.44274065867463 0 0,1 2.1446344553824552e-14,-30.44274065867463L0,0Z" style="fill: rgb(191, 105, 105);"></path></g><g class="arc"><path d="M1.8640802452459436e-15,-30.44274065867463A30.44274065867463,30.44274065867463 0 1,1 -28.70721518888352,10.131942306905268L0,0Z" style="fill: rgb(105, 191, 105);"></path></g><g class="arc"><path d="M-28.70721518888352,10.131942306905268A30.44274065867463,30.44274065867463 0 0,1 -3.4356676440988476,-30.248250307259323L0,0Z" style="fill: rgb(105, 105, 191);"></path></g><text y="40.44274065867463" style="text-anchor: middle; font-size: 11px; font-family: Arial, Helvetica;">Canada</text></g><g transform="translate(700,500)"><g class="arc"><path d="M-6.802778183956612,-26.494861165898634A27.354258520756133,27.354258520756133 0 0,1 -5.024895771073981e-15,-27.354258520756133L0,0Z" style="fill: rgb(191, 105, 105);"></path></g><g class="arc"><path d="M1.6749652570246606e-15,-27.354258520756133A27.354258520756133,27.354258520756133 0 1,1 -25.67836181583755,9.427470163055174L0,0Z" style="fill: rgb(105, 191, 105);"></path></g><g class="arc"><path d="M-25.67836181583755,9.427470163055174A27.354258520756133,27.354258520756133 0 0,1 -6.802778183956612,-26.494861165898634L0,0Z" style="fill: rgb(105, 105, 191);"></path></g><text y="37.35425852075613" style="text-anchor: middle; font-size: 11px; font-family: Arial, Helvetica;">Australia</text></g><g transform="translate(100,700)"><g class="arc"><path d="M-4.574594567044316,-26.70609704122738A27.095064765161297,27.095064765161297 0 0,1 1.9087969154191753e-14,-27.095064765161297L0,0Z" style="fill: rgb(191, 105, 105);"></path></g><g class="arc"><path d="M1.6590942168672507e-15,-27.095064765161297A27.095064765161297,27.095064765161297 0 1,1 -12.30087523010266,24.141893115531182L0,0Z" style="fill: rgb(105, 191, 105);"></path></g><g class="arc"><path d="M-12.30087523010266,24.141893115531182A27.095064765161297,27.095064765161297 0 0,1 -4.574594567044316,-26.70609704122738L0,0Z" style="fill: rgb(105, 105, 191);"></path></g><text y="37.0950647651613" style="text-anchor: middle; font-size: 11px; font-family: Arial, Helvetica;">South Korea</text></g><g transform="translate(300,700)"><g class="arc"><path d="M-5.555232773698908,-26.43445750329859A27.011870625035904,27.011870625035904 0 0,1 -4.962000134989895e-15,-27.011870625035904L0,0Z" style="fill: rgb(191, 105, 105);"></path></g><g class="arc"><path d="M1.6540000449966318e-15,-27.011870625035904A27.011870625035904,27.011870625035904 0 1,1 -26.68656699454639,4.179509146929201L0,0Z" style="fill: rgb(105, 191, 105);"></path></g><g class="arc"><path d="M-26.68656699454639,4.179509146929201A27.011870625035904,27.011870625035904 0 0,1 -5.555232773698908,-26.43445750329859L0,0Z" style="fill: rgb(105, 105, 191);"></path></g><text y="37.011870625035904" style="text-anchor: middle; font-size: 11px; font-family: Arial, Helvetica;">Spain</text></g><g transform="translate(500,700)"><g class="arc"><path d="M-5.9394171224019745,-25.08628951735484A25.779809881037313,25.779809881037313 0 0,1 -4.735674248015948e-15,-25.779809881037313L0,0Z" style="fill: rgb(191, 105, 105);"></path></g><g class="arc"><path d="M1.5785580826719826e-15,-25.779809881037313A25.779809881037313,25.779809881037313 0 1,1 -17.765202377448762,18.6814395053143L0,0Z" style="fill: rgb(105, 191, 105);"></path></g><g class="arc"><path d="M-17.765202377448762,18.6814395053143A25.779809881037313,25.779809881037313 0 0,1 -5.9394171224019745,-25.08628951735484L0,0Z" style="fill: rgb(105, 105, 191);"></path></g><text y="35.77980988103731" style="text-anchor: middle; font-size: 11px; font-family: Arial, Helvetica;">Mexico</text></g><g transform="translate(700,700)"><g class="arc"><path d="M-16.788132056096583,-13.36338871092277A21.45743544257225,21.45743544257225 0 0,1 -3.941666944898562e-15,-21.45743544257225L0,0Z" style="fill: rgb(191, 105, 105);"></path></g><g class="arc"><path d="M4.153062117202007,21.05168902541593A21.45743544257225,21.45743544257225 0 0,1 -16.788132056096583,-13.36338871092277L0,0Z" style="fill: rgb(105, 191, 105);"></path></g><g class="arc"><path d="M1.3138889816328538e-15,-21.45743544257225A21.45743544257225,21.45743544257225 0 0,1 4.153062117202007,21.05168902541593L0,0Z" style="fill: rgb(105, 105, 191);"></path></g><text y="31.45743544257225" style="text-anchor: middle; font-size: 11px; font-family: Arial, Helvetica;">Indonesia</text></g><g transform="translate(100,900)"><g class="arc"><path d="M-3.706337669063865,-20.87061178828891A21.19715488773401,21.19715488773401 0 0,1 -3.893854182644119e-15,-21.19715488773401L0,0Z" style="fill: rgb(191, 105, 105);"></path></g><g class="arc"><path d="M1.2979513942147064e-15,-21.19715488773401A21.19715488773401,21.19715488773401 0 1,1 -21.050521335189632,2.488960998350896L0,0Z" style="fill: rgb(105, 191, 105);"></path></g><g class="arc"><path d="M-21.050521335189632,2.488960998350896A21.19715488773401,21.19715488773401 0 0,1 -3.706337669063865,-20.87061178828891L0,0Z" style="fill: rgb(105, 105, 191);"></path></g><text y="31.19715488773401" style="text-anchor: middle; font-size: 11px; font-family: Arial, Helvetica;">Netherlands</text></g><g transform="translate(300,900)"><g class="arc"><path d="M-10.841919767895774,-17.323658083567356A20.436642426040482,20.436642426040482 0 0,1 -2.1905535083792588e-14,-20.436642426040482L0,0Z" style="fill: rgb(191, 105, 105);"></path></g><g class="arc"><path d="M1.2513834366184738e-15,-20.436642426040482A20.436642426040482,20.436642426040482 0 1,1 -14.8976668166748,13.989849072423345L0,0Z" style="fill: rgb(105, 191, 105);"></path></g><g class="arc"><path d="M-14.8976668166748,13.989849072423345A20.436642426040482,20.436642426040482 0 0,1 -10.841919767895774,-17.323658083567356L0,0Z" style="fill: rgb(105, 105, 191);"></path></g><text y="30.436642426040482" style="text-anchor: middle; font-size: 11px; font-family: Arial, Helvetica;">Turkey</text></g><g transform="translate(500,900)"><g class="arc"><path d="M-2.4746593733286546,-19.589182792694576A19.744873296620685,19.744873296620685 0 0,1 -3.627074382341485e-15,-19.744873296620685L0,0Z" style="fill: rgb(191, 105, 105);"></path></g><g class="arc"><path d="M-17.24245082114896,9.62070221864621A19.744873296620685,19.744873296620685 0 0,1 -2.4746593733286546,-19.589182792694576L0,0Z" style="fill: rgb(105, 191, 105);"></path></g><g class="arc"><path d="M1.2090247941138286e-15,-19.744873296620685A19.744873296620685,19.744873296620685 0 1,1 -17.24245082114896,9.62070221864621L0,0Z" style="fill: rgb(105, 105, 191);"></path></g><text y="29.744873296620685" style="text-anchor: middle; font-size: 11px; font-family: Arial, Helvetica;">Saudi Arabia</text></g><g transform="translate(700,900)"><g class="arc"><path d="M-1.5672000794087797,-19.143352088035083A19.207395587517222,19.207395587517222 0 0,1 -3.528341328931494e-15,-19.207395587517222L0,0Z" style="fill: rgb(191, 105, 105);"></path></g><g class="arc"><path d="M1.1761137763104981e-15,-19.207395587517222A19.207395587517222,19.207395587517222 0 1,1 -18.60395108371855,4.776719515523545L0,0Z" style="fill: rgb(105, 191, 105);"></path></g><g class="arc"><path d="M-18.60395108371855,4.776719515523545A19.207395587517222,19.207395587517222 0 0,1 -1.5672000794087797,-19.143352088035083L0,0Z" style="fill: rgb(105, 105, 191);"></path></g><text y="29.207395587517222" style="text-anchor: middle; font-size: 11px; font-family: Arial, Helvetica;">Switzerland</text></g><g transform="translate(100,1100)"><g class="arc"><path d="M-15.515791278259393,-7.129571320799654A17.075437511492325,17.075437511492325 0 0,1 -3.136706983873458e-15,-17.075437511492325L0,0Z" style="fill: rgb(191, 105, 105);"></path></g><g class="arc"><path d="M1.0455689946244862e-15,-17.075437511492325A17.075437511492325,17.075437511492325 0 1,1 -5.9427564385417035,16.00794215759947L0,0Z" style="fill: rgb(105, 191, 105);"></path></g><g class="arc"><path d="M-5.9427564385417035,16.00794215759947A17.075437511492325,17.075437511492325 0 0,1 -15.515791278259393,-7.129571320799654L0,0Z" style="fill: rgb(105, 105, 191);"></path></g><text y="27.075437511492325" style="text-anchor: middle; font-size: 11px; font-family: Arial, Helvetica;">Nigeria</text></g><g transform="translate(300,1100)"><g class="arc"><path d="M-1.920823229537946,-16.911388678986636A17.020124233709044,17.020124233709044 0 0,1 -3.1265460995853114e-15,-17.020124233709044L0,0Z" style="fill: rgb(191, 105, 105);"></path></g><g class="arc"><path d="M1.042182033195104e-15,-17.020124233709044A17.020124233709044,17.020124233709044 0 1,1 -16.56227654088868,3.9211764451524527L0,0Z" style="fill: rgb(105, 191, 105);"></path></g><g class="arc"><path d="M-16.56227654088868,3.9211764451524527A17.020124233709044,17.020124233709044 0 0,1 -1.920823229537946,-16.911388678986636L0,0Z" style="fill: rgb(105, 105, 191);"></path></g><text y="27.020124233709044" style="text-anchor: middle; font-size: 11px; font-family: Arial, Helvetica;">Sweden</text></g><g transform="translate(500,1100)"><g class="arc"><path d="M-3.5861417701136493,-16.530518234174362A16.915036088809416,16.915036088809416 0 0,1 -3.107241720543362e-15,-16.915036088809416L0,0Z" style="fill: rgb(191, 105, 105);"></path></g><g class="arc"><path d="M1.0357472401811207e-15,-16.915036088809416A16.915036088809416,16.915036088809416 0 1,1 -12.330543814995666,11.579124971784225L0,0Z" style="fill: rgb(105, 191, 105);"></path></g><g class="arc"><path d="M-12.330543814995666,11.579124971784225A16.915036088809416,16.915036088809416 0 0,1 -3.5861417701136493,-16.530518234174362L0,0Z" style="fill: rgb(105, 105, 191);"></path></g><text y="26.915036088809416" style="text-anchor: middle; font-size: 11px; font-family: Arial, Helvetica;">Poland</text></g><g transform="translate(700,1100)"><g class="arc"><path d="M-0.72715732109464,-16.520815012740655A16.53681004470991,16.53681004470991 0 0,1 -3.0377627234042683e-15,-16.53681004470991L0,0Z" style="fill: rgb(191, 105, 105);"></path></g><g class="arc"><path d="M1.0125875744680894e-15,-16.53681004470991A16.53681004470991,16.53681004470991 0 1,1 -16.299429738841297,-2.7918948123800087L0,0Z" style="fill: rgb(105, 191, 105);"></path></g><g class="arc"><path d="M-16.299429738841297,-2.7918948123800087A16.53681004470991,16.53681004470991 0 0,1 -0.72715732109464,-16.520815012740655L0,0Z" style="fill: rgb(105, 105, 191);"></path></g><text y="26.53681004470991" style="text-anchor: middle; font-size: 11px; font-family: Arial, Helvetica;">Belgium</text></g><g transform="translate(100,1300)"><g class="arc"><path d="M-2.7487144134689268,-16.047213262575724A16.280923942497797,16.280923942497797 0 0,1 -2.9907572090012147e-15,-16.280923942497797L0,0Z" style="fill: rgb(191, 105, 105);"></path></g><g class="arc"><path d="M9.969190696670717e-16,-16.280923942497797A16.280923942497797,16.280923942497797 0 1,1 -8.723724906808707,13.746458022768026L0,0Z" style="fill: rgb(105, 191, 105);"></path></g><g class="arc"><path d="M-8.723724906808707,13.746458022768026A16.280923942497797,16.280923942497797 0 0,1 -2.7487144134689268,-16.047213262575724L0,0Z" style="fill: rgb(105, 105, 191);"></path></g><text y="26.280923942497797" style="text-anchor: middle; font-size: 11px; font-family: Arial, Helvetica;">Norway</text></g><g transform="translate(300,1300)"><g class="arc"><path d="M-1.3190743676750976,-16.145152093287095A16.19894728995777,16.19894728995777 0 0,1 -2.975698342230521e-15,-16.19894728995777L0,0Z" style="fill: rgb(191, 105, 105);"></path></g><g class="arc"><path d="M9.918994474101737e-16,-16.19894728995777A16.19894728995777,16.19894728995777 0 1,1 -14.079167707109072,8.011424965505652L0,0Z" style="fill: rgb(105, 191, 105);"></path></g><g class="arc"><path d="M-14.079167707109072,8.011424965505652A16.19894728995777,16.19894728995777 0 0,1 -1.3190743676750976,-16.145152093287095L0,0Z" style="fill: rgb(105, 105, 191);"></path></g><text y="26.19894728995777" style="text-anchor: middle; font-size: 11px; font-family: Arial, Helvetica;">Taiwan</text></g><g transform="translate(500,1300)"><g class="arc"><path d="M-8.954744997943441,-12.308994075260733A15.221655400218365,15.221655400218365 0 0,1 -2.7961727345402165e-15,-15.221655400218365L0,0Z" style="fill: rgb(191, 105, 105);"></path></g><g class="arc"><path d="M9.320575781800723e-16,-15.221655400218365A15.221655400218365,15.221655400218365 0 1,1 -8.364429685618859,12.717511909069907L0,0Z" style="fill: rgb(105, 191, 105);"></path></g><g class="arc"><path d="M-8.364429685618859,12.717511909069907A15.221655400218365,15.221655400218365 0 0,1 -8.954744997943441,-12.308994075260733L0,0Z" style="fill: rgb(105, 105, 191);"></path></g><text y="25.221655400218367" style="text-anchor: middle; font-size: 11px; font-family: Arial, Helvetica;">Argentina</text></g><g transform="translate(700,1300)"><g class="arc"><path d="M-1.4145431840242557,-14.964384355520272A15.031092161223992,15.031092161223992 0 0,1 -2.7611668354397746e-15,-15.031092161223992L0,0Z" style="fill: rgb(191, 105, 105);"></path></g><g class="arc"><path d="M9.203889451465916e-16,-15.031092161223992A15.031092161223992,15.031092161223992 0 1,1 -13.975587142360666,5.533235544009721L0,0Z" style="fill: rgb(105, 191, 105);"></path></g><g class="arc"><path d="M-13.975587142360666,5.533235544009721A15.031092161223992,15.031092161223992 0 0,1 -1.4145431840242557,-14.964384355520272L0,0Z" style="fill: rgb(105, 105, 191);"></path></g><text y="25.03109216122399" style="text-anchor: middle; font-size: 11px; font-family: Arial, Helvetica;">Austria</text></g><g transform="translate(100,1500)"><g class="arc"><path d="M-0.6461446892897692,-14.667402399995636A14.68162784308658,14.68162784308658 0 0,1 -2.6969712816462958e-15,-14.68162784308658L0,0Z" style="fill: rgb(191, 105, 105);"></path></g><g class="arc"><path d="M-8.221341411584174,12.16387033460429A14.68162784308658,14.68162784308658 0 0,1 -0.6461446892897692,-14.667402399995636L0,0Z" style="fill: rgb(105, 191, 105);"></path></g><g class="arc"><path d="M8.98990427215432e-16,-14.68162784308658A14.68162784308658,14.68162784308658 0 1,1 -8.221341411584174,12.16387033460429L0,0Z" style="fill: rgb(105, 105, 191);"></path></g><text y="24.68162784308658" style="text-anchor: middle; font-size: 11px; font-family: Arial, Helvetica;">United Arab Emirates</text></g><g transform="translate(300,1500)"><g class="arc"><path d="M-9.346365262889297,-11.01316042294434A14.4445230495455,14.4445230495455 0 0,1 -2.653415837675409e-15,-14.4445230495455L0,0Z" style="fill: rgb(191, 105, 105);"></path></g><g class="arc"><path d="M8.844719458918031e-16,-14.4445230495455A14.4445230495455,14.4445230495455 0 0,1 1.6301382900458121,14.352243562738815L0,0Z" style="fill: rgb(105, 191, 105);"></path></g><g class="arc"><path d="M1.6301382900458121,14.352243562738815A14.4445230495455,14.4445230495455 0 0,1 -9.346365262889297,-11.01316042294434L0,0Z" style="fill: rgb(105, 105, 191);"></path></g><text y="24.444523049545502" style="text-anchor: middle; font-size: 11px; font-family: Arial, Helvetica;">Iran</text></g><g transform="translate(500,1500)"><g class="arc"><path d="M-7.638303372744742,-12.205010348536645A14.39812335069992,14.39812335069992 0 0,1 1.0143210092997614e-14,-14.39812335069992L0,0Z" style="fill: rgb(191, 105, 105);"></path></g><g class="arc"><path d="M8.816307837581711e-16,-14.39812335069992A14.39812335069992,14.39812335069992 0 1,1 -2.786838732378123,14.125844608436248L0,0Z" style="fill: rgb(105, 191, 105);"></path></g><g class="arc"><path d="M-2.786838732378123,14.125844608436248A14.39812335069992,14.39812335069992 0 0,1 -7.638303372744742,-12.205010348536645L0,0Z" style="fill: rgb(105, 105, 191);"></path></g><text y="24.39812335069992" style="text-anchor: middle; font-size: 11px; font-family: Arial, Helvetica;">Colombia</text></g><g transform="translate(700,1500)"><g class="arc"><path d="M-10.414439418649911,-9.416868262317365A14.04058247632801,14.04058247632801 0 0,1 -2.5792131581699273e-15,-14.04058247632801L0,0Z" style="fill: rgb(191, 105, 105);"></path></g><g class="arc"><path d="M8.597377193899758e-16,-14.04058247632801A14.04058247632801,14.04058247632801 0 1,1 -2.370575437732346,13.839014718128936L0,0Z" style="fill: rgb(105, 191, 105);"></path></g><g class="arc"><path d="M-2.370575437732346,13.839014718128936A14.04058247632801,14.04058247632801 0 0,1 -10.414439418649911,-9.416868262317365L0,0Z" style="fill: rgb(105, 105, 191);"></path></g><text y="24.040582476328012" style="text-anchor: middle; font-size: 11px; font-family: Arial, Helvetica;">Thailand</text></g><g transform="translate(100,1700)"><g class="arc"><path d="M-3.741928761637285,-12.879646679346587A13.412208223926882,13.412208223926882 0 0,1 -2.4637826806394793e-15,-13.412208223926882L0,0Z" style="fill: rgb(191, 105, 105);"></path></g><g class="arc"><path d="M8.212608935464932e-16,-13.412208223926882A13.412208223926882,13.412208223926882 0 1,1 -13.360345925788106,-1.1783404369065105L0,0Z" style="fill: rgb(105, 191, 105);"></path></g><g class="arc"><path d="M-13.360345925788106,-1.1783404369065105A13.412208223926882,13.412208223926882 0 0,1 -3.741928761637285,-12.879646679346587L0,0Z" style="fill: rgb(105, 105, 191);"></path></g><text y="23.412208223926882" style="text-anchor: middle; font-size: 11px; font-family: Arial, Helvetica;">Denmark</text></g><g transform="translate(300,1700)"><g class="arc"><path d="M-2.079890610961196,-13.132499413502565A13.296183128973885,13.296183128973885 0 0,1 -2.442469216466236e-15,-13.296183128973885L0,0Z" style="fill: rgb(191, 105, 105);"></path></g><g class="arc"><path d="M8.141564054887453e-16,-13.296183128973885A13.296183128973885,13.296183128973885 0 1,1 -11.18139490077818,7.194782406165003L0,0Z" style="fill: rgb(105, 191, 105);"></path></g><g class="arc"><path d="M-11.18139490077818,7.194782406165003A13.296183128973885,13.296183128973885 0 0,1 -2.079890610961196,-13.132499413502565L0,0Z" style="fill: rgb(105, 105, 191);"></path></g><text y="23.296183128973887" style="text-anchor: middle; font-size: 11px; font-family: Arial, Helvetica;">South Africa</text></g><g transform="translate(500,1700)"><g class="arc"><path d="M-2.324836023281462,-11.062752181606687A11.304395090706565,11.304395090706565 0 0,1 -1.2116903456949237e-14,-11.304395090706565L0,0Z" style="fill: rgb(191, 105, 105);"></path></g><g class="arc"><path d="M6.921945632065425e-16,-11.304395090706565A11.304395090706565,11.304395090706565 0 1,1 -10.9801361853533,-2.688114156408868L0,0Z" style="fill: rgb(105, 191, 105);"></path></g><g class="arc"><path d="M-10.9801361853533,-2.688114156408868A11.304395090706565,11.304395090706565 0 0,1 -2.324836023281462,-11.062752181606687L0,0Z" style="fill: rgb(105, 105, 191);"></path></g><text y="21.304395090706564" style="text-anchor: middle; font-size: 11px; font-family: Arial, Helvetica;">Greece</text></g><g transform="translate(700,1700)"><g class="arc"><path d="M-3.030281308644416,-9.960972156691266A10.411703564542085,10.411703564542085 0 0,1 -1.9125989165981326e-15,-10.411703564542085L0,0Z" style="fill: rgb(191, 105, 105);"></path></g><g class="arc"><path d="M6.375329721993776e-16,-10.411703564542085A10.411703564542085,10.411703564542085 0 1,1 -6.329563235853817,8.266813192471819L0,0Z" style="fill: rgb(105, 191, 105);"></path></g><g class="arc"><path d="M-6.329563235853817,8.266813192471819A10.411703564542085,10.411703564542085 0 0,1 -3.030281308644416,-9.960972156691266L0,0Z" style="fill: rgb(105, 105, 191);"></path></g><text y="20.411703564542087" style="text-anchor: middle; font-size: 11px; font-family: Arial, Helvetica;">Venezuela</text></g></svg>